#!OML:ASF H:\IndianDance\Patient Classification 1\Patient 1\Session 1\dancer.ASF
:FULLY-SPECIFIED
:DEGREES
2608
root 4.02893 15.0221 6.19745 -527.345 61.1045 -178.26
lowerback 8.23119 5.7328 12.8806
upperback -6.61786 9.53656 -1.05376
thorax -9.63844 3.73367 -9.71506
lowerneck -16.7662 9.39974 7.81681
upperneck 31.1174 16.4941 -9.00049
head 15.1272 7.43401 -1.77413
rclavicle -1.32328e-013 -6.04305e-014
rhumerus -47.7027 64.3666 -87.3865
rradius 99.287
rwrist -77.049
rhand 20.4011 -1.38071
rfingers 7.12502
rthumb 44.9085 -24.9162
lclavicle -1.32328e-013 -6.04305e-014
lhumerus -10.7513 -35.1272 37.3426
lradius 32.7863
lwrist 30.9062
lhand 61.801 382.414
lfingers 7.12502
lthumb 74.8932 -16.5205
rfemur -42.8893 -18.1336 15.8805
rtibia 41.2442
rfoot -26.0698 -16.4932
rtoes 1.46469
lfemur -31.6491 13.7935 -23.6922
ltibia 47.066
lfoot -22.036 14.6621
ltoes 10.5847
2609
root 4.0671 15.0051 6.20967 -527.569 60.8821 -178.538
lowerback 8.26558 5.71538 12.5782
upperback -6.60552 9.50042 -0.846765
thorax -9.7294 3.73918 -9.32745
lowerneck -16.7967 9.41631 7.93197
upperneck 30.8956 16.5025 -9.2392
head 15.075 7.41883 -1.88609
rclavicle -1.77415e-014 -4.37326e-014
rhumerus -47.1829 64.1728 -86.5513
rradius 99.1383
rwrist -76.6885
rhand 20.5484 -1.37718
rfingers 7.12502
rthumb 45.0456 -24.8588
lclavicle -1.77415e-014 -4.37326e-014
lhumerus -10.375 -34.8858 36.4934
lradius 32.8072
lwrist 30.7451
lhand 62.021 382.739
lfingers 7.12502
lthumb 74.9149 -17.0069
rfemur -43.2762 -18.1392 15.7588
rtibia 42.4117
rfoot -26.0838 -15.5406
rtoes -0.544226
lfemur -31.682 14.0471 -23.6734
ltibia 47.2569
lfoot -22.1099 14.3392
ltoes 9.95226
2610
root 4.10733 14.9911 6.22321 -527.942 60.6572 -179.019
lowerback 8.26169 5.7072 12.189
upperback -6.59982 9.45332 -0.702578
thorax -9.80745 3.74446 -8.95601
lowerneck -16.8472 9.41894 8.0253
upperneck 30.6808 16.4684 -9.41575
head 15.0154 7.38865 -1.97768
rclavicle 5.98093e-014 -8.74653e-015
rhumerus -46.7134 63.8468 -85.8352
rradius 98.9942
rwrist -76.2736
rhand 20.6345 -1.38675
rfingers 7.12502
rthumb 45.1257 -24.8366
lclavicle 5.98093e-014 -8.74653e-015
lhumerus -9.89748 -34.6469 35.5374
lradius 32.8103
lwrist 30.5085
lhand 62.1769 383.026
lfingers 7.12502
lthumb 74.9284 -17.2958
rfemur -43.6682 -18.0713 15.4898
rtibia 43.6539
rfoot -25.9878 -14.513
rtoes -3.00018
lfemur -31.7103 14.3865 -23.7819
ltibia 47.3789
lfoot -22.1537 13.9513
ltoes 9.31738
2611
root 4.14991 14.9792 6.23789 -528.403 60.4159 -179.631
lowerback 8.21493 5.70749 11.7377
upperback -6.60134 9.39933 -0.604091
thorax -9.86926 3.75078 -8.59493
lowerneck -16.9085 9.40391 8.1011
upperneck 30.4709 16.3952 -9.55127
head 14.9488 7.34376 -2.05778
rclavicle -3.721e-014 1.74931e-014
rhumerus -46.3121 63.4051 -85.2339
rradius 98.8706
rwrist -75.8528
rhand 20.6576 -1.43436
rfingers 7.12502
rthumb 45.1472 -24.8757
lclavicle -3.721e-014 1.74931e-014
lhumerus -9.32421 -34.3835 34.5055
lradius 32.7888
lwrist 30.1869
lhand 62.2613 383.278
lfingers 7.12502
lthumb 74.935 -17.3574
rfemur -44.0506 -17.9227 15.1097
rtibia 44.9893
rfoot -25.8546 -13.386
rtoes -5.65887
lfemur -31.7433 14.7727 -23.9712
ltibia 47.4569
lfoot -22.1642 13.5198
ltoes 8.61662
2612
root 4.19415 14.9678 6.25338 -528.869 60.1305 -180.272
lowerback 8.13613 5.70839 11.2817
upperback -6.61296 9.34054 -0.53093
thorax -9.92031 3.75535 -8.25488
lowerneck -16.9654 9.36907 8.16695
upperneck 30.2605 16.2888 -9.6697
head 14.8739 7.28599 -2.1366
rclavicle -6.72762e-014 -3.97569e-015
rhumerus -46.0158 62.8712 -84.7609
rradius 98.7762
rwrist -75.4531
rhand 20.6074 -1.47883
rfingers 7.12502
rthumb 45.1005 -24.9387
lclavicle -6.72762e-014 -3.97569e-015
lhumerus -8.66894 -34.0741 33.4258
lradius 32.7401
lwrist 29.7821
lhand 62.2783 383.474
lfingers 7.12502
lthumb 74.9363 -17.2234
rfemur -44.4092 -17.7341 14.6902
rtibia 46.4315
rfoot -25.7528 -12.115
rtoes -8.31849
lfemur -31.7996 15.1617 -24.178
ltibia 47.5364
lfoot -22.1607 13.0429
ltoes 7.88361
2613
root 4.24003 14.9551 6.26979 -529.276 59.7762 -180.859
lowerback 8.02898 5.7003 10.854
upperback -6.63347 9.27199 -0.460129
thorax -9.96209 3.75434 -7.92872
lowerneck -17.0006 9.31531 8.23164
upperneck 30.0387 16.16 -9.80076
head 14.7878 7.21883 -2.22579
rclavicle -7.93151e-014 1.11319e-014
rhumerus -45.8227 62.2786 -84.3976
rradius 98.7126
rwrist -75.1297
rhand 20.5106 -1.53385
rfingers 7.12502
rthumb 45.0104 -25.0293
lclavicle -7.93151e-014 1.11319e-014
lhumerus -7.95483 -33.6907 32.3339
lradius 32.6681
lwrist 29.2973
lhand 62.1897 383.666
lfingers 7.12502
lthumb 74.9294 -16.704
rfemur -44.7242 -17.5313 14.2908
rtibia 47.9826
rfoot -25.7454 -10.6873
rtoes -10.7051
lfemur -31.898 15.5207 -24.3509
ltibia 47.6647
lfoot -22.1644 12.5238
ltoes 7.16373
2614
root 4.28728 14.9396 6.28736 -529.586 59.327 -181.336
lowerback 7.90616 5.67094 10.4834
upperback -6.65977 9.18437 -0.374725
thorax -9.99937 3.74144 -7.61438
lowerneck -17.013 9.24502 8.29694
upperneck 29.8039 16.0188 -9.96033
head 14.6929 7.14511 -2.3297
rclavicle -6.58723e-014 -1.11319e-014
rhumerus -45.7206 61.6676 -84.1198
rradius 98.6807
rwrist -74.9195
rhand 20.3714 -1.57908
rfingers 7.12502
rthumb 44.8809 -25.1254
lclavicle -6.58723e-014 -1.11319e-014
lhumerus -7.20417 -33.2071 31.2578
lradius 32.575
lwrist 28.7343
lhand 62.0281 383.862
lfingers 7.12502
lthumb 74.9155 -15.9098
rfemur -44.9666 -17.3534 13.9614
rtibia 49.6171
rfoot -25.8364 -9.09248
rtoes -12.6395
lfemur -32.05 15.8205 -24.451
ltibia 47.884
lfoot -22.1792 11.9882
ltoes 6.39705
2615
root 4.33597 14.9202 6.30672 -529.788 58.7688 -181.666
lowerback 7.78789 5.61468 10.1825
upperback -6.68684 9.07505 -0.259987
thorax -10.0394 3.71449 -7.30484
lowerneck -17.003 9.15805 8.3603
upperneck 29.5535 15.8712 -10.162
head 14.5904 7.06576 -2.4518
rclavicle 9.36773e-015 1.74931e-014
rhumerus -45.6925 61.0543 -83.8959
rradius 98.6757
rwrist -74.8349
rhand 20.2254 -1.62118
rfingers 7.12502
rthumb 44.745 -25.2205
lclavicle 9.36773e-015 1.74931e-014
lhumerus -6.43178 -32.6304 30.2166
lradius 32.4678
lwrist 28.1138
lhand 61.8036 384.058
lfingers 7.12502
lthumb 74.8934 -14.8856
rfemur -45.0941 -17.2103 13.735
rtibia 51.2742
rfoot -26.024 -7.38405
rtoes -14.0567
lfemur -32.2512 16.0426 -24.4447
ltibia 48.2197
lfoot -22.2087 11.4383
ltoes 5.57617
2616
root 4.38619 14.8968 6.32805 -529.895 58.0873 -181.832
lowerback 7.70116 5.51798 9.96492
upperback -6.70302 8.93009 -0.104163
thorax -10.0875 3.66569 -6.99614
lowerneck -16.9846 9.06223 8.41639
upperneck 29.2929 15.7313 -10.4078
head 14.4871 6.98524 -2.58829
rclavicle 4.45029e-014 3.18055e-015
rhumerus -45.7013 60.4857 -83.6874
rradius 98.6925
rwrist -74.8605
rhand 20.0879 -1.644
rfingers 7.12502
rthumb 44.6169 -25.2929
lclavicle 4.45029e-014 3.18055e-015
lhumerus -5.66377 -31.9395 29.23
lradius 32.3491
lwrist 27.4411
lhand 61.5476 384.279
lfingers 7.12502
lthumb 74.8643 -13.7236
rfemur -45.0406 -17.1137 13.6268
rtibia 52.8534
rfoot -26.2519 -5.61978
rtoes -14.9909
lfemur -32.473 16.1715 -24.3043
ltibia 48.6836
lfoot -22.2618 10.8687
ltoes 4.70049
2617
root 4.43872 14.87 6.35173 -529.938 57.2969 -181.85
lowerback 7.65681 5.38493 9.81232
upperback -6.70134 8.7528 0.0951398
thorax -10.1436 3.59815 -6.67667
lowerneck -16.9634 8.95897 8.47021
upperneck 29.024 15.5994 -10.6985
head 14.3858 6.90383 -2.73989
rclavicle -2.45971e-013 1.27222e-014
rhumerus -45.7181 59.9659 -83.4606
rradius 98.7293
rwrist -74.9791
rhand 20.0278 -1.69731
rfingers 7.12502
rthumb 44.561 -25.3677
lclavicle -2.45971e-013 1.27222e-014
lhumerus -4.90548 -31.1651 28.2907
lradius 32.23
lwrist 26.7527
lhand 61.317 384.496
lfingers 7.12502
lthumb 74.8346 -12.6619
rfemur -44.7552 -17.0265 13.6308
rtibia 54.2251
rfoot -26.4473 -3.88249
rtoes -15.5266
lfemur -32.6959 16.2194 -24.0249
ltibia 49.2745
lfoot -22.3369 10.277
ltoes 3.76526
2618
root 4.49312 14.8403 6.37799 -529.894 56.4135 -181.69
lowerback 7.67374 5.21901 9.74648
upperback -6.68439 8.55372 0.340529
thorax -10.2177 3.51475 -6.35877
lowerneck -16.9496 8.85168 8.52201
upperneck 28.752 15.4783 -11.0291
head 14.2907 6.82283 -2.90358
rclavicle -8.52289e-015 2.22639e-014
rhumerus -45.733 59.5025 -83.2038
rradius 98.7821
rwrist -75.1411
rhand 20.0003 -1.74329
rfingers 7.12502
rthumb 44.5354 -25.4236
lclavicle -8.52289e-015 2.22639e-014
lhumerus -4.15598 -30.3495 27.3906
lradius 32.1123
lwrist 26.097
lhand 61.1308 384.701
lfingers 7.12502
lthumb 74.8081 -11.7778
rfemur -44.2136 -16.9119 13.7686
rtibia 55.2599
rfoot -26.5561 -2.24343
rtoes -15.6006
lfemur -32.9228 16.2187 -23.5881
ltibia 49.9845
lfoot -22.4226 9.65319
ltoes 2.76917
2619
root 4.55068 14.8083 6.40692 -529.785 55.4613 -181.391
lowerback 7.7233 5.03102 9.72414
upperback -6.6513 8.33906 0.632792
thorax -10.2959 3.42335 -6.01467
lowerneck -16.9496 8.74185 8.56989
upperneck 28.4791 15.3663 -11.39
head 14.2027 6.74194 -3.07547
rclavicle 1.24414e-013 6.36111e-015
rhumerus -45.7199 59.1114 -82.8809
rradius 98.8537
rwrist -75.3045
rhand 20.0408 -1.79992
rfingers 7.12502
rthumb 44.5731 -25.4657
lclavicle 1.24414e-013 6.36111e-015
lhumerus -3.41455 -29.5188 26.5283
lradius 31.9992
lwrist 25.5114
lhand 61.0302 384.915
lfingers 7.12502
lthumb 74.7928 -11.198
rfemur -43.424 -16.7333 14.0362
rtibia 55.8675
rfoot -26.5659 -0.865934
rtoes -15.2811
lfemur -33.1638 16.2105 -23.0183
ltibia 50.7952
lfoot -22.5105 8.97545
ltoes 1.76497
2620
root 4.61136 14.7768 6.43793 -529.589 54.4541 -180.961
lowerback 7.77028 4.83151 9.73749
upperback -6.61574 8.12002 0.965277
thorax -10.3706 3.3308 -5.64501
lowerneck -16.9527 8.62827 8.62976
upperneck 28.2079 15.2557 -11.7761
head 14.1202 6.66081 -3.25826
rclavicle 1.32664e-013 -3.02153e-014
rhumerus -45.6982 58.7797 -82.5069
rradius 98.9433
rwrist -75.4378
rhand 20.141 -1.86222
rfingers 7.12502
rthumb 44.6664 -25.492
lclavicle 1.32664e-013 -3.02153e-014
lhumerus -2.6669 -28.7429 25.6754
lradius 31.9
lwrist 25.0546
lhand 61.0262 385.148
lfingers 7.12502
lthumb 74.7922 -10.9501
rfemur -42.4364 -16.4843 14.4357
rtibia 56.029
rfoot -26.4665 -0.0288459
rtoes -14.9154
lfemur -33.4517 16.2268 -22.3375
ltibia 51.689
lfoot -22.5864 8.23082
ltoes 0.797705
2621
root 4.67551 14.748 6.47078 -529.292 53.4024 -180.436
lowerback 7.7632 4.63083 9.75309
upperback -6.59015 7.90215 1.33293
thorax -10.4271 3.24378 -5.23291
lowerneck -16.9575 8.50862 8.69603
upperneck 27.9393 15.1391 -12.1728
head 14.0402 6.57713 -3.44702
rclavicle 5.57839e-014 3.33958e-014
rhumerus -45.6697 58.5086 -82.0782
rradius 99.0499
rwrist -75.5339
rhand 20.2735 -1.91374
rfingers 7.12502
rthumb 44.7897 -25.4957
lclavicle 5.57839e-014 3.33958e-014
lhumerus -1.89662 -28.0405 24.8282
lradius 31.81
lwrist 24.7331
lhand 61.0835 385.444
lfingers 7.12502
lthumb 74.801 -10.8628
rfemur -41.3545 -16.1466 14.9393
rtibia 55.8158
rfoot -26.2795 0.339494
rtoes -13.9332
lfemur -33.8326 16.2878 -21.584
ltibia 52.6466
lfoot -22.6282 7.40282
ltoes -0.06991
